<svg xmlns="http://www.w3.org/2000/svg" viewBox="0 0 64 64" width="64" height="64">
  <defs>
    <radialGradient id="orb" cx="50%" cy="34%" r="78%">
      <stop offset="0%" stop-color="#3a2466"/>
      <stop offset="100%" stop-color="#0e0a1f"/>
    </radialGradient>
  </defs>
  <circle cx="32" cy="32" r="30" fill="url(#orb)" stroke="#d4af37" stroke-width="2.5"/>
  <path d="M32 13 C20.5 13 13.5 21.3 13.5 31.5 C13.5 37.6 16.6 41.8 20.8 44.8 L20.8 49.8 C20.8 51.9 22.6 53 24.7 53 L39.3 53 C41.4 53 43.2 51.9 43.2 49.8 L43.2 44.8 C47.4 41.8 50.5 37.6 50.5 31.5 C50.5 21.3 43.5 13 32 13 Z"
        fill="#ece7d8"/>
  <circle cx="24.5" cy="31.5" r="5.2" fill="#0e0a1f"/>
  <circle cx="39.5" cy="31.5" r="5.2" fill="#0e0a1f"/>
  <path d="M32 37 l-3.2 6.2 l6.4 0 z" fill="#0e0a1f"/>
  <g fill="#0e0a1f">
    <rect x="26.6" y="49.5" width="2" height="4.2"/>
    <rect x="31" y="49.5" width="2" height="4.2"/>
    <rect x="35.4" y="49.5" width="2" height="4.2"/>
  </g>
</svg>
